<?xml version="1.0" encoding="utf-8"?>
<!-- Generator: Adobe Illustrator 16.0.0, SVG Export Plug-In . SVG Version: 6.00 Build 0)  -->
<!DOCTYPE svg PUBLIC "-//W3C//DTD SVG 1.1//EN" "http://www.w3.org/Graphics/SVG/1.1/DTD/svg11.dtd">
<svg version="1.1" id="Layer_1" xmlns="http://www.w3.org/2000/svg" xmlns:xlink="http://www.w3.org/1999/xlink" x="0px" y="0px"
	 width="1190.55px" height="841.89px" viewBox="0 0 1190.55 841.89" enable-background="new 0 0 1190.55 841.89"
	 xml:space="preserve">
<path fill="#EE3572" d="M272.468,416.473c52.904,0,96.697-39.298,104.033-90.202H964.02c8.314,0,15.035-6.72,15.035-15.034
	c0-8.313-6.721-15.033-15.035-15.033H376.501C369.165,245.299,325.372,206,272.468,206c-58.03,0-105.236,47.222-105.236,105.236
	C167.232,369.252,214.438,416.473,272.468,416.473z M272.468,236.068c41.448,0,75.168,33.721,75.168,75.168
	c0,41.448-33.721,75.169-75.168,75.169c-41.448,0-75.169-33.721-75.169-75.169C197.299,269.789,231.02,236.068,272.468,236.068z"/>
<path fill="#EE3572" d="M884.281,452.627c-52.902,0-96.697,39.298-104.033,90.202H192.729c-8.298,0-15.034,6.72-15.034,15.034
	c0,8.313,6.735,15.033,15.034,15.033h587.519c7.336,50.904,51.131,90.203,104.033,90.203c58.016,0,105.236-47.222,105.236-105.236
	C989.518,499.848,942.297,452.627,884.281,452.627z M884.281,633.031c-41.447,0-75.168-33.721-75.168-75.168
	c0-41.448,33.721-75.169,75.168-75.169c41.449,0,75.17,33.721,75.17,75.169C959.451,599.311,925.73,633.031,884.281,633.031z"/>
<g>
</g>
<g>
</g>
<g>
</g>
<g>
</g>
<g>
</g>
<g>
</g>
<g>
</g>
<g>
</g>
<g>
</g>
<g>
</g>
<g>
</g>
<g>
</g>
<g>
</g>
<g>
</g>
</svg>
