<?xml version="1.0" encoding="utf-8"?>
<!-- Generator: Adobe Illustrator 16.0.0, SVG Export Plug-In . SVG Version: 6.00 Build 0)  -->
<!DOCTYPE svg PUBLIC "-//W3C//DTD SVG 1.1//EN" "http://www.w3.org/Graphics/SVG/1.1/DTD/svg11.dtd">
<svg version="1.1" id="Capa_1" xmlns="http://www.w3.org/2000/svg" xmlns:xlink="http://www.w3.org/1999/xlink" x="0px" y="0px"
	 width="1190.549px" height="841.891px" viewBox="0 0 1190.549 841.891" enable-background="new 0 0 1190.549 841.891"
	 xml:space="preserve">
<g>
	<g>
		<path fill="#F2C12B" d="M1016.22,276.061c0,24.312-3.447,48.296-10.345,71.949c-6.903,23.654-15.439,45.337-25.624,65.049
			c-10.19,19.712-24.479,40.901-42.874,63.57c-18.4,22.669-35.978,42.549-52.735,59.629c-16.757,17.083-38.272,37.125-64.557,60.122
			c-26.285,23-49.447,42.545-69.487,58.647c-20.038,16.099-45.504,36.463-76.382,61.107c-30.881,24.643-56.507,45.175-76.877,61.602
			c-22.341-20.37-52.237-45.662-89.69-75.893c-37.453-30.225-70.142-56.505-98.067-78.849c-27.926-22.338-57.821-48.62-89.69-78.847
			c-31.869-30.225-57.986-58.479-78.356-84.761c-20.37-26.278-36.96-55.52-49.773-87.715
			c-12.813-32.197-18.562-64.066-17.248-95.606c0-58.478,20.696-108.418,62.093-149.812c41.396-41.395,91.333-62.093,149.812-62.093
			c21.683,0,43.861,6.235,66.53,18.721s41.727,26.28,57.167,41.393c15.44,15.112,30.718,32.524,45.83,52.237
			s24.97,33.512,29.569,41.396c4.599,7.884,8.212,14.126,10.841,18.726l10.837-17.741c6.569-11.827,16.755-26.119,30.553-42.874
			s29.075-33.675,45.83-50.758c16.756-17.083,36.468-31.539,59.136-43.367c22.671-11.828,44.847-17.741,66.53-17.741
			c58.479,0,107.599,20.533,147.349,61.601C996.343,166.823,1016.22,216.925,1016.22,276.061z"/>
	</g>
</g>
</svg>
