<?xml version="1.0" encoding="utf-8"?>
<!-- Generator: Adobe Illustrator 16.0.0, SVG Export Plug-In . SVG Version: 6.00 Build 0)  -->
<!DOCTYPE svg PUBLIC "-//W3C//DTD SVG 1.1//EN" "http://www.w3.org/Graphics/SVG/1.1/DTD/svg11.dtd">
<svg version="1.1" id="Capa_1" xmlns="http://www.w3.org/2000/svg" xmlns:xlink="http://www.w3.org/1999/xlink" x="0px" y="0px"
	 width="512px" height="512px" viewBox="0 0 512 512" enable-background="new 0 0 512 512" xml:space="preserve">
<g>
	<g>
		<path fill="#EE3471" d="M506.006,227.478L265.985,35.459c-5.856-4.672-14.146-4.672-20.002,0l-85.993,68.806V63.974
			c0-17.666-14.338-32.003-32.002-32.003c-17.665,0-32.004,14.337-32.004,32.003v91.497L5.991,227.478
			c-6.881,5.536-8.001,15.585-2.496,22.53c5.505,6.88,15.553,8.001,22.466,2.496l38.02-30.404v225.941
			c0,17.666,14.338,32.003,32.003,32.003h96.009c17.666,0,32.003-14.338,32.003-32.003V320.03h64.006v128.012
			c0,17.666,14.338,32.003,32.002,32.003h96.009c17.666,0,32.004-14.338,32.004-32.003V222.101l38.02,30.403
			c2.912,2.336,6.497,3.488,9.985,3.488c4.672,0,9.345-2.048,12.545-6.016C514.008,243.095,512.856,233.046,506.006,227.478z
			 M415.982,448.042h-96.008V288.027H191.961v160.015H95.952V196.531L255.967,68.486l160.015,128.013V448.042z"/>
	</g>
</g>
</svg>
