<?xml version="1.0" encoding="utf-8"?>
<!-- Generator: Adobe Illustrator 16.0.0, SVG Export Plug-In . SVG Version: 6.00 Build 0)  -->
<!DOCTYPE svg PUBLIC "-//W3C//DTD SVG 1.1//EN" "http://www.w3.org/Graphics/SVG/1.1/DTD/svg11.dtd">
<svg version="1.1" id="Capa_1" xmlns="http://www.w3.org/2000/svg" xmlns:xlink="http://www.w3.org/1999/xlink" x="0px" y="0px"
	 width="512px" height="512px" viewBox="0 0 512 512" enable-background="new 0 0 512 512" xml:space="preserve">
<g>
	<g>
		<path fill="#EE3471" d="M311.199,351.598c0-1.776-0.623-3.555-1.866-5.331c-9.957-11.916-17.955-22.138-24.002-30.665
			c3.733-7.288,6.578-14.045,8.528-20.262l41.335-6.4c1.604-0.181,3.027-1.111,4.271-2.796c1.243-1.696,1.859-3.426,1.859-5.203
			v-49.337c0-1.953-0.616-3.688-1.859-5.197c-1.243-1.508-2.756-2.444-4.533-2.795l-40.536-6.134
			c-1.959-6.046-4.979-13.339-9.067-21.868c2.663-3.913,6.668-9.248,12.002-16c5.333-6.757,9.072-11.555,11.2-14.4
			c1.247-1.777,1.867-3.468,1.867-5.065c0-4.801-12.802-19.023-38.395-42.669c-1.776-1.42-3.644-2.131-5.606-2.131
			c-2.128,0-3.905,0.616-5.335,1.865l-31.468,23.733c-7.286-3.732-13.953-6.486-19.998-8.27l-6.134-40.798
			c-0.175-1.777-1.064-3.335-2.664-4.667c-1.602-1.333-3.379-2.001-5.337-2.001h-49.596c-4.088,0-6.755,2.134-7.999,6.399
			c-2.135,8.179-4.178,21.87-6.134,41.066c-7.643,2.488-14.487,5.333-20.531,8.533l-30.665-23.998
			c-1.777-1.246-3.644-1.865-5.601-1.865c-3.382,0-10.403,5.244-21.068,15.734c-10.668,10.487-17.961,18.398-21.868,23.732
			c-1.246,1.425-1.865,3.202-1.865,5.335c0,1.599,0.618,3.376,1.865,5.332c9.954,11.914,17.952,22.136,23.998,30.665
			c-3.732,7.293-6.575,14.045-8.529,20.267l-41.334,6.396c-1.603,0.177-3.022,1.109-4.269,2.795C0.622,227.292,0,229.022,0,230.8
			v49.333c0,1.957,0.622,3.688,1.865,5.197c1.246,1.515,2.755,2.358,4.536,2.535l40.532,6.399
			c2.134,6.753,5.247,14.045,9.336,21.866c-2.846,3.914-7.021,9.339-12.533,16.269c-5.516,6.937-9.158,11.648-10.935,14.135
			c-1.244,1.777-1.867,3.472-1.867,5.063c0,4.807,12.802,19.024,38.401,42.672c1.777,1.419,3.642,2.125,5.601,2.125
			c2.311,0,4.088-0.616,5.331-1.863l31.466-23.729c7.286,3.733,13.953,6.484,20,8.263l6.134,40.802
			c0.176,1.776,1.066,3.336,2.665,4.666c1.6,1.333,3.377,1.998,5.334,1.998h49.597c4.091,0,6.755-2.132,8-6.399
			c2.134-8.358,4.176-22.134,6.134-41.335c7.108-2.125,13.952-4.89,20.531-8.263l30.667,23.998c1.777,1.246,3.644,1.863,5.601,1.863
			c3.378,0,10.358-5.287,20.936-15.87c10.573-10.57,17.909-18.532,22.001-23.864C310.576,355.42,311.199,353.733,311.199,351.598z
			 M218.93,304.139c-13.33,13.329-29.421,19.996-48.264,19.996c-18.848,0-34.938-6.668-48.268-19.996
			c-13.332-13.335-19.999-29.426-19.999-48.27c0-18.843,6.667-34.933,19.999-48.265c13.33-13.333,29.421-19.999,48.268-19.999
			c18.843,0,34.934,6.665,48.264,19.999c13.335,13.332,20,29.422,20,48.265C238.93,274.713,232.266,290.804,218.93,304.139z"/>
		<path fill="#EE3471" d="M472.263,365.47c-2.308-5.152-4.978-9.774-7.997-13.866c9.068-20.092,13.598-32.359,13.598-36.802
			c0-0.703-0.349-1.33-1.064-1.863c-21.339-12.443-32.357-18.666-33.069-18.666l-1.598,0.536
			c-7.288,7.292-15.471,17.244-24.533,29.866c-3.554-0.354-6.217-0.536-7.994-0.536c-1.783,0-4.446,0.183-8.004,0.536
			c-2.479-3.735-7.107-9.738-13.862-18.001c-6.753-8.262-10.845-12.4-12.268-12.4c-0.354,0-3.021,1.421-8,4.272
			c-4.977,2.846-10.222,5.862-15.733,9.068c-5.516,3.207-8.619,4.977-9.332,5.334c-0.717,0.531-1.068,1.157-1.068,1.861
			c0,4.449,4.532,16.707,13.598,36.802c-3.017,4.092-5.687,8.713-7.997,13.862c-26.491,2.663-39.736,5.422-39.736,8.267v37.33
			c0,2.846,13.245,5.601,39.736,8.267c2.129,4.802,4.799,9.423,7.997,13.859c-9.065,20.093-13.598,32.36-13.598,36.802
			c0,0.71,0.352,1.337,1.068,1.867c21.684,12.622,32.711,18.933,33.065,18.933c1.422,0,5.514-4.178,12.268-12.533
			c6.754-8.357,11.376-14.396,13.862-18.13c3.556,0.349,6.221,0.527,8.004,0.527c1.776,0,4.44-0.179,7.994-0.527
			c2.483,3.733,7.108,9.772,13.862,18.13c6.754,8.355,10.843,12.533,12.269,12.533c0.355,0,11.383-6.312,33.069-18.933
			c0.716-0.53,1.064-1.153,1.064-1.867c0-4.442-4.535-16.71-13.598-36.802c3.2-4.437,5.865-9.058,7.997-13.859
			c26.49-2.666,39.737-5.421,39.737-8.267v-37.33C512,370.895,498.753,368.136,472.263,365.47z M433.728,416.534
			c-6.658,6.668-14.706,10.009-24.13,10.009c-9.426,0-17.471-3.341-24.132-10.009c-6.668-6.668-10.005-14.708-10.005-24.132
			c0-9.241,3.382-17.247,10.139-23.998c6.753-6.753,14.755-10.133,23.997-10.133c9.241,0,17.248,3.376,24.005,10.133
			c6.751,6.752,10.133,14.758,10.133,23.998C443.729,401.826,440.399,409.866,433.728,416.534z"/>
		<path fill="#EE3471" d="M472.263,92.403c-2.308-5.156-4.978-9.777-7.997-13.869c9.068-20.087,13.598-32.354,13.598-36.798
			c0-0.708-0.349-1.333-1.064-1.867c-21.339-12.443-32.357-18.665-33.069-18.665l-1.598,0.532
			c-7.288,7.293-15.471,17.246-24.533,29.867c-3.554-0.354-6.217-0.532-7.994-0.532c-1.783,0-4.446,0.179-8.004,0.532
			c-2.479-3.733-7.107-9.732-13.862-17.999c-6.753-8.268-10.845-12.399-12.268-12.399c-0.354,0-3.021,1.421-8,4.268
			c-4.977,2.848-10.222,5.868-15.733,9.069c-5.516,3.201-8.619,4.978-9.332,5.331c-0.717,0.533-1.068,1.155-1.068,1.867
			c0,4.444,4.532,16.712,13.598,36.799c-3.017,4.091-5.687,8.712-7.997,13.867c-26.491,2.665-39.736,5.42-39.736,8.265v37.333
			c0,2.844,13.245,5.601,39.736,8.265c2.129,4.798,4.799,9.422,7.997,13.867c-9.065,20.091-13.598,32.354-13.598,36.799
			c0,0.707,0.352,1.332,1.068,1.865c21.684,12.622,32.711,18.933,33.065,18.933c1.422,0,5.514-4.176,12.268-12.532
			s11.376-14.398,13.862-18.133c3.556,0.353,6.221,0.533,8.004,0.533c1.776,0,4.44-0.181,7.994-0.533
			c2.483,3.734,7.108,9.775,13.862,18.133c6.754,8.356,10.843,12.532,12.269,12.532c0.355,0,11.383-6.311,33.069-18.933
			c0.716-0.533,1.064-1.155,1.064-1.865c0-4.445-4.535-16.708-13.598-36.799c3.2-4.445,5.865-9.066,7.997-13.867
			c26.49-2.665,39.737-5.421,39.737-8.265v-37.333C512,97.826,498.753,95.07,472.263,92.403z M433.728,143.469
			c-6.658,6.668-14.706,10.002-24.13,10.002c-9.426,0-17.471-3.334-24.132-10.002c-6.668-6.664-10.005-14.709-10.005-24.132
			c0-9.244,3.382-17.245,10.139-24.001c6.753-6.756,14.755-10.135,23.997-10.135c9.241,0,17.248,3.383,24.005,10.135
			c6.751,6.755,10.133,14.757,10.133,24.001C443.729,128.76,440.399,136.805,433.728,143.469z"/>
	</g>
</g>
</svg>
