<?xml version="1.0" encoding="utf-8"?>
<!-- Generator: Adobe Illustrator 16.0.0, SVG Export Plug-In . SVG Version: 6.00 Build 0)  -->
<!DOCTYPE svg PUBLIC "-//W3C//DTD SVG 1.1//EN" "http://www.w3.org/Graphics/SVG/1.1/DTD/svg11.dtd">
<svg version="1.1" id="Capa_1" xmlns="http://www.w3.org/2000/svg" xmlns:xlink="http://www.w3.org/1999/xlink" x="0px" y="0px"
	 width="512px" height="512px" viewBox="0 0 512 512" enable-background="new 0 0 512 512" xml:space="preserve">
<g>
	<g id="account-circle">
		<path fill="#EE3471" d="M256,0C115.2,0,0,115.2,0,256s115.2,256,256,256s256-115.2,256-256S396.8,0,256,0z M256,76.8
			c43.52,0,76.8,33.28,76.8,76.8s-33.28,76.8-76.8,76.8c-43.521,0-76.8-33.28-76.8-76.8S212.48,76.8,256,76.8z M256,440.32
			c-64,0-120.32-33.279-153.601-81.92c0-51.2,102.4-79.36,153.601-79.36s153.6,28.16,153.6,79.36
			C376.32,407.04,320,440.32,256,440.32z"/>
	</g>
</g>
</svg>
