<?xml version="1.0" encoding="utf-8"?>
<!-- Generator: Adobe Illustrator 16.0.0, SVG Export Plug-In . SVG Version: 6.00 Build 0)  -->
<!DOCTYPE svg PUBLIC "-//W3C//DTD SVG 1.1//EN" "http://www.w3.org/Graphics/SVG/1.1/DTD/svg11.dtd">
<svg version="1.1" id="Capa_1" xmlns="http://www.w3.org/2000/svg" xmlns:xlink="http://www.w3.org/1999/xlink" x="0px" y="0px"
	 width="1190.549px" height="841.891px" viewBox="0 0 1190.549 841.891" enable-background="new 0 0 1190.549 841.891"
	 xml:space="preserve">
<path fill="#EE3471" d="M953.755,706.587L780.621,526.521c44.516-52.918,68.906-119.501,68.906-188.814
	C849.528,175.759,717.768,44,555.822,44c-161.947,0-293.705,131.759-293.705,293.706c0,161.946,131.758,293.705,293.705,293.705
	c60.797,0,118.734-18.337,168.269-53.147l174.447,181.434c7.292,7.572,17.099,11.748,27.608,11.748
	c9.948,0,19.385-3.793,26.549-10.688C967.916,746.11,968.402,721.821,953.755,706.587z M555.822,120.619
	c119.704,0,217.087,97.383,217.087,217.087c0,119.704-97.383,217.086-217.087,217.086S338.735,457.41,338.735,337.706
	C338.735,218.001,436.117,120.619,555.822,120.619z"/>
</svg>
